<svg xmlns="http://www.w3.org/2000/svg" xmlns:xlink="http://www.w3.org/1999/xlink" viewBox="0 0 201 190.33"><defs><style>.cls-1{fill:none;}.cls-2{isolation:isolate;}.cls-3{clip-path:url(#clip-path);}.cls-4{fill:#27aae1;}.cls-5{fill:#f0c6a6;}.cls-6{fill:#192154;}.cls-7{fill:#fff;}.cls-8{fill:#e6e7e8;mix-blend-mode:multiply;}.cls-9{fill:#2b3990;}</style><clipPath id="clip-path"><circle class="cls-1" cx="100.5" cy="95.16" r="93.46"/></clipPath></defs><title>admin</title><g class="cls-2"><g id="Calque_1" data-name="Calque 1"><g class="cls-3"><circle class="cls-4" cx="100.34" cy="96.98" r="93.46"/><path class="cls-5" d="M142.55,80.49c0,30.48-19.13,59.38-42.73,59.38S57.1,111,57.1,80.49s19.13-51,42.72-51S142.55,50,142.55,80.49Z"/><path class="cls-5" d="M64.75,85.53c2.26,7.7.41,15.49-4.11,17.41s-10-2.76-12.25-10.45.14-13.63,4.65-15.55S62.51,77.84,64.75,85.53Z"/><path class="cls-5" d="M134.89,85.53c-2.26,7.7-.41,15.49,4.11,17.41s10-2.76,12.25-10.45-.14-13.63-4.66-15.55S137.14,77.84,134.89,85.53Z"/><path class="cls-6" d="M70.87,61s21.83,11,59.37,11a37.93,37.93,0,0,1,3.94,21S137,80.14,143,76.36c0,0,10.4-33-16.09-56.22,0,0-9.57,9.83-38.08,7.94-33.17-2.21-36.23,21.7-32.21,48.28,0,0,7.55,1.92,7.55,13.5C64.18,89.86,68.05,79.78,70.87,61Z"/><circle class="cls-6" cx="83.7" cy="89.86" r="5.35"/><circle class="cls-7" cx="84.78" cy="91.38" r="2.59"/><circle class="cls-6" cx="115.94" cy="89.86" r="5.35"/><ellipse class="cls-7" cx="114.87" cy="91.38" rx="2.59" ry="2.59"/><path class="cls-8" d="M146.59,76.94a6.87,6.87,0,0,0-3.68-.5l.1-.07s10.4-33-16.09-56.22c0,0-6.94,7.12-26.58,8.07V139.85c17.38-.32,32.26-16.28,38.74-36.89,4.5,1.83,9.94-2.83,12.17-10.48S151.11,78.86,146.59,76.94Z"/><rect class="cls-9" x="26.82" y="104.78" width="146.01" height="97.04" rx="6.35" ry="6.35"/><path class="cls-8" d="M172.83,111.13a6.35,6.35,0,0,0-6.35-6.35H33.17a6.35,6.35,0,0,0-6.35,6.35v84.34a6.33,6.33,0,0,0,3.61,5.7l142.4-68.77Z"/><path class="cls-7" d="M108.79,163c3-5.13,5.3-6.38,5.46-11.69,0-.2,0-.4,0-.61a11.61,11.61,0,1,0-23.22,0c0,.2,0,.41,0,.61.16,5.31,2.45,6.56,5.47,11.69a7.24,7.24,0,0,1,.94,3.23H96.29v3h1.27a1.42,1.42,0,0,0-.11.53A1.55,1.55,0,0,0,98,170.9a1.56,1.56,0,0,0-.52,1.13,1.52,1.52,0,0,0,.49,1.09,1.3,1.3,0,0,0-.49,1A1.7,1.7,0,0,0,99,175.57a4.11,4.11,0,0,0,7.33,0,1.7,1.7,0,0,0,1.54-1.47,1.32,1.32,0,0,0-.49-1,1.54,1.54,0,0,0,.49-1.09,1.56,1.56,0,0,0-.52-1.13,1.55,1.55,0,0,0,.52-1.13,1.46,1.46,0,0,0-.11-.53H109v-3h-1.17A7.19,7.19,0,0,1,108.79,163Z"/><path class="cls-7" d="M104,136.23a1.55,1.55,0,0,1-1.31,1.72h0a1.56,1.56,0,0,1-1.31-1.72v-5.72a1.55,1.55,0,0,1,1.31-1.72h0a1.55,1.55,0,0,1,1.31,1.72Z"/><path class="cls-7" d="M96,137.29a1.55,1.55,0,0,1-.28,2.14h0a1.55,1.55,0,0,1-2-.83l-2.86-5a1.55,1.55,0,0,1,.27-2.14h0a1.56,1.56,0,0,1,2,.83Z"/><path class="cls-7" d="M89.61,142.19a1.55,1.55,0,0,1,.83,2h0a1.55,1.55,0,0,1-2.15.28l-5-2.86a1.56,1.56,0,0,1-.83-2h0a1.56,1.56,0,0,1,2.14-.28Z"/><path class="cls-7" d="M86.54,149.63a1.56,1.56,0,0,1,1.72,1.31h0a1.56,1.56,0,0,1-1.72,1.31H80.82a1.56,1.56,0,0,1-1.72-1.31h0a1.56,1.56,0,0,1,1.72-1.31Z"/><path class="cls-7" d="M87.59,157.6a1.56,1.56,0,0,1,2.15.28h0a1.55,1.55,0,0,1-.83,2l-5,2.86a1.55,1.55,0,0,1-2.14-.27h0a1.56,1.56,0,0,1,.83-2Z"/><path class="cls-7" d="M91.63,163.72a1.37,1.37,0,0,1,1.84-.57h0A1.37,1.37,0,0,1,93.9,165l-2.35,4.06a1.37,1.37,0,0,1-1.84.57h0a1.37,1.37,0,0,1-.43-1.88Z"/><path class="cls-7" d="M109.32,137.29a1.56,1.56,0,0,0,.27,2.14h0a1.55,1.55,0,0,0,2-.83l2.86-5a1.56,1.56,0,0,0-.28-2.14h0a1.56,1.56,0,0,0-2,.83Z"/><path class="cls-7" d="M115.7,142.19a1.56,1.56,0,0,0-.83,2h0a1.56,1.56,0,0,0,2.15.28l5-2.86a1.56,1.56,0,0,0,.83-2h0a1.56,1.56,0,0,0-2.14-.28Z"/><path class="cls-7" d="M118.77,149.63a1.55,1.55,0,0,0-1.72,1.31h0a1.55,1.55,0,0,0,1.72,1.31h5.72a1.56,1.56,0,0,0,1.72-1.31h0a1.56,1.56,0,0,0-1.72-1.31Z"/><path class="cls-7" d="M117.71,157.6a1.56,1.56,0,0,0-2.15.28h0a1.55,1.55,0,0,0,.84,2l5,2.86a1.56,1.56,0,0,0,2.15-.27h0a1.56,1.56,0,0,0-.83-2Z"/><path class="cls-7" d="M113.68,163.72a1.37,1.37,0,0,0-1.84-.57h0a1.36,1.36,0,0,0-.43,1.88l2.35,4.06a1.36,1.36,0,0,0,1.84.57h0a1.37,1.37,0,0,0,.43-1.88Z"/></g></g></g></svg>